<?xml version="1.0" encoding="utf-8" ?><svg xmlns="http://www.w3.org/2000/svg" xmlns:xlink="http://www.w3.org/1999/xlink" width="400" height="400" viewBox="0 0 400 400"><path fill="white" d="M0 0L400 0L400 400L0 400L0 0Z"/><path fill="#0D0D0D" d="M142 100.831C146.589 100.479 151.332 101.572 154.621 105.003C159.975 110.589 159.299 117.975 159.197 125.108C160.975 121.564 168.999 108.102 171.297 105.592C172.625 104.148 174.222 102.977 175.997 102.144C179.633 100.429 183.805 100.248 187.576 101.642C195.046 104.432 199.41 112.417 198 120.117C197.719 121.652 197.198 122.966 196.638 124.409C200.044 119.471 203.046 113.89 206.234 108.749C211.15 100.823 220.7 98.4909 228.521 103.952C231.061 105.747 233.047 108.218 234.253 111.084C237.296 118.409 234.431 123.381 230.791 129.568L223.803 141.424C221.031 146.122 218.356 149.912 217.547 155.481C216.224 164.592 222.928 173.599 232.178 174.504C235.256 174.805 238.02 174.283 241.009 173.7C241.449 169.708 241.229 162.25 241.218 158.035L241.181 130.567C241.181 120.386 239.342 107.058 250.474 102.176C254.222 100.491 258.492 100.393 262.312 101.905C266.015 103.355 268.984 106.225 270.56 109.875C271.278 111.565 271.722 113.359 271.876 115.189C272.11 118.224 271.974 123.115 271.975 126.247L271.972 146.696L271.975 170.151C271.976 181.048 273.935 192.068 261.521 197.075C259.976 197.545 258.371 197.787 256.757 197.793C252.712 197.81 249.145 196.45 246.296 193.565C240.973 188.174 241.046 181.643 241.047 174.617C235.049 184.39 229.583 199.868 215.798 197.424C211.604 196.679 207.888 194.274 205.49 190.753C202.064 185.753 202.36 180.821 203.384 175.17C201.796 178.093 200.192 181.008 198.573 183.915C195.523 189.403 192.069 196.007 185.288 197.57C173.833 200.586 162.603 188.707 165.773 177.563C168.409 168.293 177.175 158.945 181.101 149.818C185.119 140.476 183.283 131.564 174.097 126.36C168.812 123.365 164.674 123.916 159.226 125.553C158.587 144.783 159.713 164.471 159.006 183.717C158.766 190.259 152.834 196.174 146.371 197.238C142.404 197.856 138.353 196.876 135.106 194.514C127.337 188.901 128.84 179.833 128.811 171.295L128.78 149.214L128.817 126.497C128.834 122.22 128.676 117.567 129.145 113.337C129.89 106.607 135.466 101.846 142 100.831Z"/><path fill="white" d="M201.312 124.853C209.305 123.675 217.706 130.152 219.429 137.984C221.407 146.973 215.351 154.818 211.054 162.134C209.034 165.574 206.763 169.674 204.479 172.835C202.691 173.379 201.527 173.698 199.699 174.053C191.056 174.84 183.793 170.096 181.478 161.622C180.611 158.323 180.656 154.849 181.61 151.573C182.791 147.465 186.557 141.599 188.857 137.777C191.224 133.888 193.534 129.964 195.788 126.007C197.923 125.297 199.091 125.069 201.312 124.853Z"/><path fill="#0D0D0D" d="M228.134 234.081C231.242 233.905 232.122 233.832 235.04 234.756C230.638 243.578 229.147 241.688 220.421 240.193C218.754 239.907 216.325 239.949 214.576 239.96C219.661 242.465 224.636 243.975 227.406 249.673C229.101 253.189 229.319 257.238 228.01 260.915C224.397 271.333 211.966 275.047 202.264 271.719C200.62 271.155 197.496 268.815 196.066 269.712C194.547 274.106 201.862 275.046 204.543 275.548C209.958 276.515 215.403 277.64 220.788 278.699C234.813 281.459 232.77 292.156 223.668 299.842C215.283 305.681 204.671 307.674 194.955 303.754C190.707 302.039 185.764 297.256 188.212 292.3C190.21 288.255 198.244 285.852 202.388 284.453C198.313 283.783 189.543 282.408 189.925 276.557C190.136 273.319 193.645 270.753 195.988 268.836C194.048 267.291 192.255 266.148 191.063 263.964C183.881 250.799 195.484 239.314 208.796 239.37C210.79 239.379 213.079 240.555 214.951 240.136C216.53 237.379 224.962 234.487 228.134 234.081Z"/><path fill="white" d="M206.114 240.558C216.316 240.13 226.437 268.455 211.729 271.971C200.556 272.041 191.613 242.836 206.114 240.558Z"/><path fill="white" d="M201.904 284.763C202.455 284.74 204.825 284.86 205.486 285.062C210.834 286.701 226.92 286.221 224.807 295.051C224.104 297.986 222.151 299.698 219.703 301.08C217.802 301.964 216.747 301.858 214.486 302.229C206.925 303.469 192.802 296.009 198.828 287.085C199.293 286.396 201.059 285.308 201.904 284.763Z"/><path fill="#0D0D0D" d="M61.7112 238.585C69.7047 237.831 72.6534 242.227 74.4697 249.202L74.6994 248.788C78.5018 241.991 87.0708 235.712 95.1814 240.089C101.781 243.651 101.016 253.026 100.995 259.565L100.948 271.801C100.911 278.495 100.478 281.386 106.897 284.974C99.5083 285.063 91.95 284.977 84.5481 284.972C88.045 283.271 90.0504 281.964 90.6107 277.76C91.1515 274.033 90.8969 270.206 90.9465 266.446C90.9848 263.579 90.8828 261.134 90.8719 258.241C90.8527 253.161 90.0246 244.079 82.7448 245.099C79.4062 245.567 76.949 247.607 75.0127 250.382C74.7775 255.793 74.4051 276.955 76.114 281.104C77.0748 283.437 79.2277 284.087 81.3623 284.957L75.6875 284.979L58.5974 284.952C62.6833 283.276 64.4721 281.987 64.7201 277.296C65.1114 269.895 64.5666 261.16 64.6608 253.93C64.8128 242.261 51.7226 243.432 49.2775 250.253C48.5897 258.381 48.9362 267.378 49.0975 275.536C49.2106 281.255 50.2585 283.044 54.9564 284.904C47.6687 285.113 39.9012 284.973 32.582 284.95C33.6821 284.509 36.1377 283.573 36.8533 282.655C39.8127 278.859 39.0556 271.688 39.051 267.126C39.0718 261.126 39.0411 255.126 38.959 249.127C37.5742 248.297 34.9414 247.242 33.4095 246.587C39.85 245.049 44.5359 242.458 49.6557 238.442C49.4374 241.074 49.7197 244.165 49.5368 247.08C52.4919 242.083 55.93 239.38 61.7112 238.585Z"/><path fill="#0D0D0D" d="M269.983 250.188C273.859 242.807 280.645 236.11 289.899 239.386C298.247 242.341 297.494 254.236 297.358 261.469C297.299 265.007 297.271 268.545 297.275 272.082C297.302 278.799 297.042 282.45 304.057 284.827C297.324 285.296 287.141 284.978 280.179 284.954C284.542 283.248 287.168 281.247 286.989 276.206C286.732 268.963 287.633 259.248 286.715 252.252C285.35 241.843 274.887 246.63 269.775 251.597C269.563 255.737 269.65 260.432 269.632 264.62C269.608 269.897 268.976 275.803 270.691 280.793C271.352 282.719 274.271 283.62 274.861 284.752C274.084 285.153 273.106 285.016 272.187 284.995L232.521 284.944C234.755 283.853 237.344 282.541 237.752 279.83C238.252 276.513 238.07 272.769 238.067 269.411C238.073 263.193 238.047 256.974 237.988 250.755C236.503 250.051 234.13 249.22 232.54 248.607C239.829 246.08 243.021 243.246 249.476 239.359C248.38 245.106 247.562 277.237 249.495 281.716C250.207 283.364 251.951 283.849 253.494 284.425C260.921 282.534 259.337 274.188 259.347 267.975C259.371 261.551 259.338 255.128 259.248 248.705C257.617 247.981 255.308 247.197 253.595 246.557C259.704 245.426 264.764 242.262 269.719 238.744C270.081 239.243 269.936 248.55 269.983 250.188Z"/><path fill="#0D0D0D" d="M323.223 238.819C325.106 238.544 328.89 238.699 330.713 239.063C333.044 239.509 335.223 240.543 337.042 242.068C342.3 246.53 341.461 252.599 341.461 258.948C341.467 263.493 341.445 268.037 341.395 272.581C341.372 274.897 341.041 277.92 342.318 279.827C343.59 280.753 344.933 280.625 346.453 280.577L346.299 280.804C344.563 283.329 342.592 285.497 339.442 285.907C333.079 286.734 331.645 281.673 331.057 276.949C328.991 279.575 327.797 280.55 325.242 282.569C317.043 289.051 300.619 286.351 303.352 273.207C306.957 265.091 323.067 259.1 331.076 254.538C331.104 250.725 331.428 245.531 329.23 242.249C326.141 237.637 319.841 239.661 317.224 243.672C315.106 246.918 315.141 249.882 314.637 253.623C310.788 259.506 299.51 257.309 304.208 250.69C307.641 245.854 317.451 239.862 323.223 238.819Z"/><path fill="white" d="M330.388 255.951C330.494 255.972 330.779 256.151 330.89 256.214C331.129 257.733 331.035 261.487 331.032 263.172L331.003 275.762C326.559 279.64 322.579 281.843 317.159 278.098C314.411 275.444 313.142 271.626 314.509 267.967C316.78 261.888 324.831 258.455 330.388 255.951Z"/><path fill="#0D0D0D" d="M127.411 238.793C132.123 238.328 137.217 238.855 141.054 241.831C146.774 246.266 145.93 253.186 145.876 259.599L145.761 273.572C145.753 278.1 145.247 280.455 150.569 280.983C150.113 281.727 149.658 282.404 149.085 283.061C147.54 284.804 145.37 285.868 143.046 286.022C136.986 286.367 135.829 281.409 135.736 276.701C134.13 278.797 132.236 280.654 130.11 282.219C126.147 285.077 121.111 286.523 116.255 285.756C110.326 284.819 106.545 279.643 107.607 273.734C110.498 266.548 118.928 263.182 125.507 259.831C128.863 258.102 132.204 256.343 135.529 254.554C135.8 248.428 135.175 236.578 125.301 240.366C119.876 242.447 120.132 249.355 118.817 253.806C118.155 256.049 111.639 258.074 109.61 256.564C105.863 254.252 108.765 249.742 111.274 247.73C116.424 243.599 120.803 240.174 127.411 238.793Z"/><path fill="white" d="M135.063 255.737L135.32 255.884C135.679 258.574 136.083 274.049 134.494 276.382C131.831 280.291 125.394 280.714 121.261 277.888C118.636 275.292 117.535 271.588 118.855 268.083C121.053 262.246 129.701 258.192 135.063 255.737Z"/><path fill="#0D0D0D" d="M348.759 222.676C354.578 220.468 357.11 218.987 361.97 215.034L361.973 257.382C361.972 264.329 361.726 271.468 362.312 278.374C362.619 281.991 365.475 283.672 368.365 284.988C360.712 284.991 351.81 285.212 344.249 284.885C346.841 284.058 349.688 282.994 350.723 280.328C352.24 276.418 351.755 269.682 351.749 265.567L351.718 247.249L351.718 233.28C351.72 231.129 351.827 227.471 351.645 225.426L349.335 224.573C348.43 224.215 346.53 223.798 345.51 223.545L348.759 222.676Z"/><path fill="#1F1919" d="M348.759 222.676C348.921 223.23 349.132 224.053 349.335 224.573C348.43 224.215 346.53 223.798 345.51 223.545L348.759 222.676Z"/><path fill="#0D0D0D" d="M179.999 238.062C184.653 237.63 186.569 238.357 190.173 241.058C189.901 241.733 189.612 242.395 189.272 243.038C185.303 250.54 178.206 244.513 172.173 246.573C170.73 247.065 168.864 248.4 168.218 249.85C166.658 253.349 166.484 276.498 167.955 279.905C169.184 282.748 171.332 283.817 174.061 284.919C167.833 284.98 161.604 285.002 155.375 284.984L149.963 284.993C155.734 282.443 156.771 280.333 157.029 273.852C157.126 271.406 157.043 268.897 157.035 266.447L156.967 249.724C155.175 249.186 153.383 248.307 151.671 247.527C157.869 245.65 163.095 243.075 167.988 238.757L168.011 248.177C170.367 242.991 174.33 239.205 179.999 238.062Z"/><path fill="#0D0D0D" d="M241.715 222.058C242.848 221.964 244.028 222.017 245.17 222.037C246.821 222.923 247.852 223.763 248.605 225.555C249.351 227.333 249.322 229.341 248.525 231.096C247.582 233.123 246.194 234.006 244.229 234.76C236.291 236.409 234.605 225.063 241.715 222.058Z"/></svg>