<?xml version="1.0" encoding="utf-8" ?>
<svg xmlns="http://www.w3.org/2000/svg" width="1024" height="1024" viewBox="0 0 1024 1024">
  <!-- macOS squircle background: rx ~22.37% of 1024 = 229 -->
  <rect width="1024" height="1024" rx="229" ry="229" fill="#44C9AF"/>
  <!-- Logo mark: original paths scaled 6.04x to fill ~85% of width, centered at (512,512) -->
  <!-- Original logo center: (200,149), transform: translate(-696,-388) scale(6.04) -->
  <g transform="translate(-696,-388) scale(6.04)">
    <!-- Main logo mark in white -->
    <path fill="white" d="M142 100.831C146.589 100.479 151.332 101.572 154.621 105.003C159.975 110.589 159.299 117.975 159.197 125.108C160.975 121.564 168.999 108.102 171.297 105.592C172.625 104.148 174.222 102.977 175.997 102.144C179.633 100.429 183.805 100.248 187.576 101.642C195.046 104.432 199.41 112.417 198 120.117C197.719 121.652 197.198 122.966 196.638 124.409C200.044 119.471 203.046 113.89 206.234 108.749C211.15 100.823 220.7 98.4909 228.521 103.952C231.061 105.747 233.047 108.218 234.253 111.084C237.296 118.409 234.431 123.381 230.791 129.568L223.803 141.424C221.031 146.122 218.356 149.912 217.547 155.481C216.224 164.592 222.928 173.599 232.178 174.504C235.256 174.805 238.02 174.283 241.009 173.7C241.449 169.708 241.229 162.25 241.218 158.035L241.181 130.567C241.181 120.386 239.342 107.058 250.474 102.176C254.222 100.491 258.492 100.393 262.312 101.905C266.015 103.355 268.984 106.225 270.56 109.875C271.278 111.565 271.722 113.359 271.876 115.189C272.11 118.224 271.974 123.115 271.975 126.247L271.972 146.696L271.975 170.151C271.976 181.048 273.935 192.068 261.521 197.075C259.976 197.545 258.371 197.787 256.757 197.793C252.712 197.81 249.145 196.45 246.296 193.565C240.973 188.174 241.046 181.643 241.047 174.617C235.049 184.39 229.583 199.868 215.798 197.424C211.604 196.679 207.888 194.274 205.49 190.753C202.064 185.753 202.36 180.821 203.384 175.17C201.796 178.093 200.192 181.008 198.573 183.915C195.523 189.403 192.069 196.007 185.288 197.57C173.833 200.586 162.603 188.707 165.773 177.563C168.409 168.293 177.175 158.945 181.101 149.818C185.119 140.476 183.283 131.564 174.097 126.36C168.812 123.365 164.674 123.916 159.226 125.553C158.587 144.783 159.713 164.471 159.006 183.717C158.766 190.259 152.834 196.174 146.371 197.238C142.404 197.856 138.353 196.876 135.106 194.514C127.337 188.901 128.84 179.833 128.811 171.295L128.78 149.214L128.817 126.497C128.834 122.22 128.676 117.567 129.145 113.337C129.89 106.607 135.466 101.846 142 100.831Z"/>
    <!-- Center cutout (teal to match background, creates visual hole in the M) -->
    <path fill="#44C9AF" d="M201.312 124.853C209.305 123.675 217.706 130.152 219.429 137.984C221.407 146.973 215.351 154.818 211.054 162.134C209.034 165.574 206.763 169.674 204.479 172.835C202.691 173.379 201.527 173.698 199.699 174.053C191.056 174.84 183.793 170.096 181.478 161.622C180.611 158.323 180.656 154.849 181.61 151.573C182.791 147.465 186.557 141.599 188.857 137.777C191.224 133.888 193.534 129.964 195.788 126.007C197.923 125.297 199.091 125.069 201.312 124.853Z"/>
  </g>
</svg>
